<svg width="34" height="32" viewBox="0 0 34 32" fill="none" xmlns="http://www.w3.org/2000/svg">
<mask id="mask0_4_60" style="mask-type:luminance" maskUnits="userSpaceOnUse" x="0" y="0" width="34" height="32">
<path d="M33.3161 0H0V31.704H33.3161V0Z" fill="white"/>
</mask>
<g mask="url(#mask0_4_60)">
<path d="M32.962 16.2087C32.962 15.1651 32.8648 14.1744 32.6982 13.21H17.0119V19.1678H25.9934C25.5908 21.1229 24.4108 22.7741 22.6618 23.8969V27.8599H28.0201C31.1574 25.099 32.962 21.0304 32.962 16.2087Z" fill="#4285F4"/>
<path d="M17.0119 31.7041C21.5096 31.7041 25.2715 30.2774 28.0201 27.86L22.6618 23.897C21.1626 24.8481 19.2608 25.4294 17.0119 25.4294C12.667 25.4294 8.98832 22.642 7.66952 18.8772H2.14462V22.9591C4.87932 28.1374 10.5014 31.7041 17.0119 31.7041Z" fill="#34A853"/>
<path d="M7.66951 18.8772C7.32251 17.926 7.14201 16.9088 7.14201 15.852C7.14201 14.7952 7.33631 13.778 7.66951 12.8269V8.74504H2.14461C1.00631 10.885 0.353912 13.2893 0.353912 15.852C0.353912 18.4148 1.00631 20.819 2.14461 22.959L7.66951 18.8772Z" fill="#FBBC05"/>
<path d="M17.0119 6.27474C19.469 6.27474 21.6623 7.08057 23.3975 8.65254L28.1451 4.13476C25.2715 1.57197 21.5096 0 17.0119 0C10.5014 0 4.87932 3.56674 2.14462 8.74504L7.66952 12.8269C8.98832 9.06211 12.667 6.27474 17.0119 6.27474Z" fill="#EA4335"/>
</g>
</svg>
